<svg xmlns="http://www.w3.org/2000/svg" version="1.1" xmlns:xlink="http://www.w3.org/1999/xlink" xmlns:svgjs="http://svgjs.com/svgjs" width="512" height="512" x="0" y="0" viewBox="0 0 682.667 682.667" style="enable-background:new 0 0 512 512" xml:space="preserve" class=""><g><defs><clipPath id="a" clipPathUnits="userSpaceOnUse"><path d="M0 512h512V0H0Z" fill="#d61842" data-original="#000000" class="" opacity="1"></path></clipPath></defs><path d="M0 0h240l41.514 160.125" style="stroke-linecap: butt; stroke-linejoin: miter; stroke-miterlimit: 10; stroke-dasharray: none; stroke-opacity: 1;" transform="matrix(1.33333 0 0 -1.33333 222.668 481.333)" fill="none" stroke="#D61842" stroke-width="30px" stroke-linecap="butt" stroke-linejoin="miter" stroke-miterlimit="10" stroke-dasharray="none" stroke-opacity="" data-original="#000000" opacity="1"></path><path d="M0 0h-212.916" style="stroke-linecap: butt; stroke-linejoin: miter; stroke-miterlimit: 10; stroke-dasharray: none; stroke-opacity: 1;" transform="matrix(1.33333 0 0 -1.33333 453.223 241.333)" fill="none" stroke="#D61842" stroke-width="30px" stroke-linecap="butt" stroke-linejoin="miter" stroke-miterlimit="10" stroke-dasharray="none" stroke-opacity="" data-original="#000000" opacity="1"></path><g clip-path="url(#a)" transform="matrix(1.33333 0 0 -1.33333 0 682.667)"><path d="M0 0h-270c-16.569 0-30 13.432-30 30 0 16.568 13.431 30 30 30h30l-60 270h-92" style="stroke-linecap: square; stroke-linejoin: miter; stroke-miterlimit: 10; stroke-dasharray: none; stroke-opacity: 1;" transform="translate(407.001 91)" fill="none" stroke="#D61842" stroke-width="30px" stroke-linecap="square" stroke-linejoin="miter" stroke-miterlimit="10" stroke-dasharray="none" stroke-opacity="" data-original="#000000" opacity="1"></path><path d="M0 0h283.333" style="stroke-linecap: butt; stroke-linejoin: miter; stroke-miterlimit: 10; stroke-dasharray: none; stroke-opacity: 1;" transform="translate(147.001 241)" fill="none" stroke="#D61842" stroke-width="30px" stroke-linecap="butt" stroke-linejoin="miter" stroke-miterlimit="10" stroke-dasharray="none" stroke-opacity="" data-original="#000000" opacity="1"></path><path d="m0 0-15 180" style="stroke-linecap: butt; stroke-linejoin: miter; stroke-miterlimit: 10; stroke-dasharray: none; stroke-opacity: 1;" transform="translate(249.501 151)" fill="none" stroke="#D61842" stroke-width="30px" stroke-linecap="butt" stroke-linejoin="miter" stroke-miterlimit="10" stroke-dasharray="none" stroke-opacity="" data-original="#000000" opacity="1"></path><path d="m0 0-15-180" style="stroke-linecap: butt; stroke-linejoin: miter; stroke-miterlimit: 10; stroke-dasharray: none; stroke-opacity: 1;" transform="translate(339.501 331)" fill="none" stroke="#D61842" stroke-width="30px" stroke-linecap="butt" stroke-linejoin="miter" stroke-miterlimit="10" stroke-dasharray="none" stroke-opacity="" data-original="#000000" opacity="1"></path><path d="M0 0c0-16.568-13.432-30-30-30-16.569 0-30 13.432-30 30 0 16.568 13.431 30 30 30C-13.432 30 0 16.568 0 0Z" style="stroke-linecap: butt; stroke-linejoin: miter; stroke-miterlimit: 10; stroke-dasharray: none; stroke-opacity: 1;" transform="translate(227.001 61)" fill="none" stroke="#D61842" stroke-width="30px" stroke-linecap="butt" stroke-linejoin="miter" stroke-miterlimit="10" stroke-dasharray="none" stroke-opacity="" data-original="#000000" opacity="1"></path><path d="M0 0c0-16.568-13.432-30-30-30-16.569 0-30 13.432-30 30 0 16.568 13.431 30 30 30C-13.432 30 0 16.568 0 0Z" style="stroke-linecap: butt; stroke-linejoin: miter; stroke-miterlimit: 10; stroke-dasharray: none; stroke-opacity: 1;" transform="translate(377.001 61)" fill="none" stroke="#D61842" stroke-width="30px" stroke-linecap="butt" stroke-linejoin="miter" stroke-miterlimit="10" stroke-dasharray="none" stroke-opacity="" data-original="#000000" opacity="1"></path><path d="M0 0c0-49.706-40.295-90-90-90-49.706 0-90 40.294-90 90s40.294 90 90 90C-40.295 90 0 49.706 0 0Z" style="stroke-linecap: butt; stroke-linejoin: miter; stroke-miterlimit: 10; stroke-dasharray: none; stroke-opacity: 1;" transform="translate(497.001 391)" fill="none" stroke="#D61842" stroke-width="30px" stroke-linecap="butt" stroke-linejoin="miter" stroke-miterlimit="10" stroke-dasharray="none" stroke-opacity="" data-original="#000000" opacity="1"></path><path d="M0 0h60" style="stroke-linecap: square; stroke-linejoin: miter; stroke-miterlimit: 10; stroke-dasharray: none; stroke-opacity: 1;" transform="translate(377.001 391)" fill="none" stroke="#D61842" stroke-width="30px" stroke-linecap="square" stroke-linejoin="miter" stroke-miterlimit="10" stroke-dasharray="none" stroke-opacity="" data-original="#000000" opacity="1"></path><path d="M0 0v-60" style="stroke-linecap: square; stroke-linejoin: miter; stroke-miterlimit: 10; stroke-dasharray: none; stroke-opacity: 1;" transform="translate(407.001 421)" fill="none" stroke="#D61842" stroke-width="30px" stroke-linecap="square" stroke-linejoin="miter" stroke-miterlimit="10" stroke-dasharray="none" stroke-opacity="" data-original="#000000" opacity="1"></path></g></g></svg>