<svg xmlns="http://www.w3.org/2000/svg" version="1.1" xmlns:xlink="http://www.w3.org/1999/xlink" xmlns:svgjs="http://svgjs.com/svgjs" width="512" height="512" x="0" y="0" viewBox="0 0 128 128" style="enable-background:new 0 0 512 512" xml:space="preserve" class=""><g><path d="M72.33 88a16 16 0 1 0 16-16 16 16 0 0 0-16 16zm16-12a12 12 0 1 1-12 12 12 12 0 0 1 12-12z" fill="#D61842" data-original="#000000" opacity="1" class=""></path><path d="M85 93.19a2 2 0 0 0 2.83 0l7.54-7.55a2 2 0 1 0-2.82-2.83l-6.13 6.13-3-3a2 2 0 1 0-2.82 2.83zM88 60c-3 0-6-1.69-6-4.81a2 2 0 0 0-4 0c0 4.93 3.74 7.86 8 8.62V66a2 2 0 0 0 4 0v-2.11c4.65-.66 8-3.84 8-8.48 0-5.22-4.9-7.13-8.84-8.66S83 44.2 83 42.05c0-3.43 3.38-4.34 5.38-4.34s5.15.85 5.15 4a2 2 0 0 0 4 0c0-4.66-3.59-7.36-7.56-7.93V32a2 2 0 0 0-4 0v2c-3.75.82-7 3.56-7 8.08 0 5 4.81 6.92 8.68 8.43S94 53.1 94 55.41c0 3.21-2.76 4.59-6 4.59z" fill="#D61842" data-original="#000000" opacity="1" class=""></path><path d="M110 12H66a6 6 0 0 0-6 6v43a2 2 0 0 0 4 0V18a2 2 0 0 1 2-2h9v2a6 6 0 0 0 6 6h14a6 6 0 0 0 6-6v-2h9a2 2 0 0 1 2 2v92a2 2 0 0 1-2 2H66a2 2 0 0 1-2-2v-7a2 2 0 0 0-4 0v7a6 6 0 0 0 6 6h44a6 6 0 0 0 6-6V18a6 6 0 0 0-6-6zm-13 6a2 2 0 0 1-2 2H81a2 2 0 0 1-2-2v-2h18z" fill="#D61842" data-original="#000000" opacity="1" class=""></path><path d="M63.74 89.23a57.51 57.51 0 0 0 3.08-7.74A7.44 7.44 0 0 0 66.2 75a11 11 0 0 0-5.79-4.64c0-3.88-3.49-6.49-7-8.1a9.53 9.53 0 0 0-5.48-6.46c2.55-6.11 5.57-13.7 6.47-16.91 1.5-5.35 3.18-10.74-2.54-12.87-5.34-2-8.58 4.37-10.15 7.41-7.61 14.85-12 21.8-12 21.9-1.78 2.88-2.19 3.43-2.78 3.56a32.4 32.4 0 0 1-3.11-5.59c-3.18-6.53-7-9-11.36-7.38-5.23 1.97-6.46 7.24-3.99 12.5 3.46 7.43 3.06 17.2 2.21 25.28-.52 5.12.75 9.14 3.8 12a15.92 15.92 0 0 1-.82 2.79 2 2 0 0 0 2.09 2.71 30.75 30.75 0 0 1 13 1.88 44.64 44.64 0 0 1 13.64 8.86 2 2 0 0 0 3-.23c3.6-5 1.9-3.28 4.42-5.46 6.17-5.34 10.31-9.63 13.88-17zm-1-12.18a3.48 3.48 0 0 1 .26 3.19 54.76 54.76 0 0 1-2.84 7.16 2.61 2.61 0 0 1-3.23.88 4 4 0 0 1-2.05-3 9.34 9.34 0 0 0 1.84-3c1.16-3.12 2.17-5.24 2.95-7.8a6.78 6.78 0 0 1 3.07 2.57zm-6.48-7.54c.5 1-.23 3.27-.73 4.8-.36 1.11-1.53 3.76-2.53 6.51-.56 1.51-1.72 2.89-3.32 2.7a3.78 3.78 0 0 1-2.9-2.43 6.82 6.82 0 0 0 1.8-2.64C53.2 66.82 53 67.22 53.2 66.7a7.23 7.23 0 0 1 3.06 2.81zm-7.18-7.39C50.6 65 48.5 66.94 44.85 77c-.6 1.5-1.58 1.83-2.8 1.24a3.75 3.75 0 0 1-1.63-4.15c1-3.4 5.1-12.62 5.91-14.53a5.81 5.81 0 0 1 2.75 2.56zm-1.85 41.06c-2.76 2.39-1.94 1.72-3.74 4.31a47.35 47.35 0 0 0-13.29-8.18 34.68 34.68 0 0 0-11.91-2.24c.66-2.9-.23-3.63-.71-4-2.38-2-3.33-4.88-2.92-8.94.91-8.7 1.34-19.13-2.56-27.39-1.35-2.9-1.35-5.9 1.68-7 .86-.33 3.17-1.19 6.37 5.38 1.58 3.27 1.68 3 5.69 12.29a2 2 0 0 0 3.67-1.58c-.05-.13-.62-1.44-1.35-3.1 2-.61 3-2.26 4.87-5.23.06-.1 4.57-7.29 12.2-22.17 2.27-4.42 3.77-6 5.2-5.49 2.4.9 1.37 3.43.08 8-1.17 4.16-6.39 16.78-8.8 22.29-1.39 3.2-4.25 10-5.11 12.74a7.67 7.67 0 0 0 3.71 8.94 6.68 6.68 0 0 0 2.69.65 7.72 7.72 0 0 0 6.22 5 5.8 5.8 0 0 0 2.08-.12 7.79 7.79 0 0 0 4 4.55 6.73 6.73 0 0 0 2 .54 53 53 0 0 1-10.07 10.75zM29 28.24V16.69a2 2 0 1 0-4 0v11.55a2 2 0 0 0 4 0z" fill="#D61842" data-original="#000000" opacity="1" class=""></path><path d="M35.49 32.33 43 23.91a2 2 0 1 0-3-2.66l-7.5 8.42a2 2 0 0 0 3 2.66zM21.33 32.49a2 2 0 0 0 .16-2.82L14 21.25a2 2 0 1 0-3 2.66l7.5 8.42a2 2 0 0 0 2.83.16z" fill="#D61842" data-original="#000000" opacity="1" class=""></path></g></svg>