<svg width="72" height="50" viewBox="0 0 72 50" fill="none" xmlns="http://www.w3.org/2000/svg">
<path d="M36.775 5.41102C36.4037 3.54183 35.976 2.62601 37.2841 1.43273C37.864 0.902847 38.4836 0.434159 39.1428 0.0266637C39.1658 0.0123788 39.1918 0.00355624 39.2187 0.000872528C39.2457 -0.00181118 39.273 0.00171555 39.2982 0.0111822C39.3237 0.0206488 39.3466 0.0358036 39.3652 0.0554837C39.3838 0.0751638 39.3975 0.098846 39.4057 0.124713C39.6283 0.800625 39.811 1.50018 39.9543 2.22338C40.5286 5.10366 41.0761 7.9895 41.5961 10.8809C41.6086 10.9491 41.5872 10.9616 41.5315 10.9185C40.252 9.92685 38.8856 9.07221 37.4322 8.35458C37.3669 8.3226 37.3279 8.27113 37.3153 8.2002C37.1374 7.26561 36.9572 6.33587 36.775 5.41102Z" fill="#D61842"/>
<path d="M23.8602 8.1961C23.1196 7.7288 22.4249 7.47638 21.6176 7.15094C21.3088 7.02785 21.1064 6.76291 21.1398 6.44582C21.1982 5.88464 21.653 3.87568 22.2684 3.5857C22.8526 3.30825 24.1001 3.94452 24.6237 4.30543C26.0318 5.27966 24.8386 7.12382 24.1126 8.14603C24.0846 8.18496 24.0431 8.21181 23.9962 8.22111C23.9492 8.23042 23.9006 8.22147 23.8602 8.1961Z" fill="#D61842"/>
<path d="M9.90355 23.3916C9.54473 26.582 8.77631 29.6674 7.59835 32.6479C7.24162 33.5449 6.68253 33.6304 6.04208 34.2083C5.06019 35.0955 4.28483 36.2027 3.71602 37.5295C3.69635 37.5758 3.66201 37.6144 3.61828 37.6392C3.57456 37.664 3.52389 37.6738 3.47403 37.6671C2.4685 37.5315 0.791231 37.1122 0.04439 36.3362C-0.0126315 36.2763 -0.0147174 36.2152 0.0381317 36.1526C0.641725 35.4364 1.22724 34.7173 1.79467 33.9955C5.01152 29.9081 6.47669 25.2635 6.1902 20.0622C6.13178 19.0149 5.45587 16.9454 5.9482 16.0734C6.51424 15.0721 7.21241 14.1027 8.0427 13.1653C8.32502 12.8469 8.52877 12.8913 8.65394 13.2988C9.5489 16.2403 11.5579 21.0822 15.2003 21.1949C15.3154 21.1984 15.4273 21.1565 15.5117 21.0783C15.596 21.0003 15.646 20.8922 15.6509 20.7777C15.7281 19.138 15.0897 17.5901 14.7559 16.0171C14.5995 15.2849 16.8191 12.2578 17.3448 12.2474C17.4158 12.246 17.4693 12.2759 17.5055 12.3371C17.607 12.5054 17.6731 12.6445 17.7037 12.7544C18.3295 14.9678 18.6967 17.7319 20.376 19.9099C20.3921 19.9308 20.4133 19.9473 20.4376 19.9577C20.4619 19.9681 20.4886 19.9721 20.515 19.9694C20.5415 19.9667 20.5669 19.9573 20.5889 19.9422C20.6109 19.927 20.6288 19.9066 20.641 19.8827C22.6541 15.8669 25.6519 11.4964 29.8576 9.58131C32.6781 8.29833 37.4763 11.123 39.673 12.8441C40.8454 13.764 41.757 14.9448 41.2856 16.5136C40.7069 18.4426 39.9239 20.2374 38.9366 21.8979C38.0938 23.3144 36.6752 24.0696 35.1752 24.6412C35.107 24.6663 35.0471 24.6531 34.9958 24.6016C32.8742 22.4695 29.2422 20.7756 27.0079 23.8527C26.7463 24.2129 26.4703 24.966 26.1797 26.112C26.1616 26.1814 26.1172 26.2183 26.0462 26.2225C24.419 26.3268 23.1611 26.3137 22.2724 26.1829C19.4289 25.7657 19.5061 24.7205 18.2565 22.5822C18.2037 22.4931 18.1536 22.4939 18.1063 22.5843C17.4707 23.7677 16.6321 24.7852 15.5904 25.6363C15.532 25.6837 15.4652 25.7087 15.3901 25.7114C13.1538 25.8032 11.6225 24.8519 10.0162 23.3499C9.95084 23.2888 9.91329 23.3025 9.90355 23.3916ZM25.1534 21.4661C25.2464 21.4619 25.3215 21.4703 25.3787 21.4911C25.4273 21.5078 25.4767 21.5162 25.5268 21.5162C29.7587 21.4759 33.8088 20.6038 37.6765 18.9002C37.7195 18.8814 37.7568 18.852 37.7852 18.8147C37.8136 18.7774 37.8319 18.7335 37.8386 18.6872C37.8453 18.6408 37.8401 18.5935 37.8234 18.5497C37.8067 18.506 37.7792 18.4672 37.7433 18.437C36.1453 17.0824 34.3867 16.0414 32.4674 15.3141C30.3458 14.5109 28.6372 14.9135 26.9308 16.3759C25.3202 17.7528 24.1812 19.2757 22.8294 21.1719C22.7918 21.2247 22.805 21.2581 22.869 21.2721C23.691 21.4363 24.4524 21.5009 25.1534 21.4661Z" fill="#D61842"/>
<path d="M54.8288 21.3722C52.2086 20.2331 50.2434 18.7436 47.9799 16.8056C47.4521 16.3529 47.304 15.9398 47.4438 15.2764C47.5961 14.5567 48.0801 12.5665 48.804 12.0366C48.8666 11.9907 48.9235 11.9963 48.975 12.0533C51.8301 15.2145 55.2848 17.3111 59.339 18.3431C61.5357 18.9021 64.0683 18.8855 66.4382 18.9105C66.471 18.9109 66.5033 18.9181 66.5329 18.9318C66.5627 18.9454 66.5892 18.9652 66.6109 18.9898C66.6326 19.0144 66.6489 19.0432 66.6585 19.0745C66.6683 19.1058 66.6714 19.1387 66.6677 19.1713C66.4966 20.626 66.0556 21.9897 65.3451 23.2622C65.3075 23.3304 65.2497 23.3624 65.1719 23.3582C61.5921 23.1767 57.0714 23.7191 54.2655 26.187C51.9707 28.2064 49.2734 28.9219 46.2234 28.947C45.1887 28.9532 44.4064 28.6737 43.7763 27.7975C43.1943 26.9881 42.5205 26.3476 42.1262 25.4443C41.8229 24.7517 41.54 24.0522 41.2771 23.3457C41.2534 23.2816 41.2575 23.2199 41.2897 23.16C42.1158 21.601 42.8409 19.9953 43.4655 18.3431C43.4722 18.3263 43.4839 18.3121 43.4991 18.3022C43.5143 18.2924 43.5321 18.2875 43.55 18.2882C43.5681 18.2889 43.5855 18.2952 43.5999 18.3061C43.6142 18.317 43.6249 18.3321 43.6303 18.3493C44.1748 20.0871 45.1762 22.9848 46.3924 24.322C46.4395 24.3762 46.4994 24.4054 46.5718 24.4096C49.7899 24.6239 52.5451 23.6294 54.8371 21.4264C54.8413 21.4224 54.8444 21.4176 54.8463 21.4124C54.8482 21.407 54.8486 21.4014 54.8478 21.3959C54.8469 21.3905 54.8448 21.3855 54.8415 21.3813C54.8382 21.3772 54.8338 21.374 54.8288 21.3722Z" fill="#D61842"/>
<path d="M31.5515 30.6973C30.8068 30.0402 30.0891 29.817 29.1587 29.5708C27.6421 29.1682 28.8124 26.258 29.2296 25.3651C29.8013 24.1468 31.6684 25.29 32.434 25.8095C34.2281 27.0257 32.7344 29.5124 31.6997 30.6869C31.6538 30.7412 31.6043 30.7447 31.5515 30.6973Z" fill="#D61842"/>
<path d="M8.79774 40.6754C12.6884 44.4492 17.8934 45.146 23.0149 45.2774C29.3443 45.4401 35.5819 44.5514 41.4357 42.0856C41.4659 42.0729 41.4918 42.051 41.5089 42.023C41.5262 41.9948 41.5341 41.9621 41.5316 41.9291C41.2104 38.2617 39.6666 35.2096 38.1354 31.9511C37.7035 31.0311 39.2202 29.2453 39.8606 28.6967C40.9809 27.7412 41.613 29.2641 41.9155 30.0402C42.8563 32.4601 43.9244 36.4947 46.5718 37.5148C47.0459 37.6984 47.7997 37.7902 48.8332 37.7902C53.9789 37.7902 59.1241 37.7902 64.2686 37.7902C64.5008 37.7902 64.8805 37.7485 65.4076 37.665C65.4786 37.654 65.5272 37.6156 65.5537 37.5503C66.2191 35.944 65.3555 33.1715 64.6441 31.5276C64.2164 30.5429 66.1524 27.7475 67.354 27.8852C67.4291 27.895 67.4923 27.9275 67.5438 27.9832C68.5494 29.0826 69.2086 31.4462 69.3192 32.8961C69.5347 35.7541 68.854 38.3666 67.2768 40.7338C66.5154 41.8749 65.5912 42.3213 64.2623 42.3234C58.6673 42.329 53.0714 42.3178 47.4751 42.29C46.3471 42.2844 45.313 41.9709 44.373 41.3492C44.3636 41.3431 44.3529 41.3394 44.3421 41.3379C44.331 41.3365 44.3198 41.3373 44.3091 41.3408C44.2987 41.3442 44.2889 41.3498 44.2808 41.3575C44.2728 41.365 44.2664 41.3744 44.2624 41.3846C43.6136 43.039 43.0191 45.2461 41.3668 46.139C36.6292 48.6945 30.6523 49.4873 24.905 49.9128C19.1951 50.3321 9.32136 49.3892 6.16502 43.7441C5.70189 42.9159 6.02107 40.7442 6.09409 39.7679C6.15667 38.9194 6.31105 38.256 6.55721 37.7777C7.43131 36.0754 9.41107 34.9363 11.0779 34.3084C14.0611 33.1861 17.5658 32.3537 20.6033 32.2744C22.3084 32.23 24.0732 32.4595 25.898 32.9629C26.6469 33.1694 26.9578 33.3363 26.9056 34.1979C26.8514 35.0907 26.3528 38.5704 25.2158 38.3284C19.337 37.0788 14.0089 37.4418 8.81234 40.5377C8.74836 40.5767 8.7435 40.6226 8.79774 40.6754Z" fill="#D61842"/>
<path d="M69.6758 49.9379C68.9874 49.3329 68.1425 49.0909 67.3059 48.8489C67.2421 48.8301 67.1858 48.7921 67.1451 48.74C67.1042 48.688 67.0811 48.6246 67.0785 48.5589C67.0431 47.6952 67.2893 46.164 67.7962 45.4964C68.5389 44.5159 70.4706 45.9721 71.0443 46.5812C71.0931 46.6328 71.123 46.6933 71.134 46.7627C71.3114 47.9477 70.5416 49.0512 69.8448 49.9232C69.7935 49.9888 69.7371 49.9936 69.6758 49.9379Z" fill="#D61842"/>
<path d="M65.2933 49.8919C64.6528 49.4476 64.1271 49.191 63.374 48.9782C62.9672 48.8635 62.5166 48.5464 62.598 48.1208C62.8024 47.0485 63.13 44.9728 64.3086 45.219C65.3753 45.4443 66.216 45.9902 66.8308 46.8566C66.8711 46.9123 66.885 46.974 66.8725 47.0422C66.675 48.1243 66.202 49.0685 65.4539 49.8752C65.4051 49.9268 65.3517 49.9322 65.2933 49.8919Z" fill="#D61842"/>
</svg>
