<svg xmlns="http://www.w3.org/2000/svg" version="1.1" xmlns:xlink="http://www.w3.org/1999/xlink" xmlns:svgjs="http://svgjs.com/svgjs" width="512" height="512" x="0" y="0" viewBox="0 0 32 32" style="enable-background:new 0 0 512 512" xml:space="preserve" class=""><g><g data-name="Layer 2"><path d="M12 17H5a3 3 0 0 0-3 3v7a3 3 0 0 0 3 3h7a3 3 0 0 0 3-3v-7a3 3 0 0 0-3-3zm1 10a1 1 0 0 1-1 1H5a1 1 0 0 1-1-1v-7a1 1 0 0 1 1-1h7a1 1 0 0 1 1 1zM23.5 17a6.5 6.5 0 1 0 6.5 6.5 6.508 6.508 0 0 0-6.5-6.5zm0 11a4.5 4.5 0 1 1 4.5-4.5 4.505 4.505 0 0 1-4.5 4.5zM11.579 15h8.842a3 3 0 0 0 2.555-4.572l-4.421-7.185a3 3 0 0 0-5.11 0l-4.421 7.185A3 3 0 0 0 11.579 15zm-.851-3.523 4.42-7.185a1 1 0 0 1 1.7 0l4.42 7.185A1 1 0 0 1 20.421 13h-8.842a1 1 0 0 1-.851-1.523z" fill="#D61842" data-original="#000000" opacity="1" class=""></path></g></g></svg>